<svg xmlns="http://www.w3.org/2000/svg" width="40" height="40" viewBox="0 0 40 40">
  <path d="M20.4320557,19.4871795 C22.2160279,19.4871795 22.1045296,17.0940171 22.8850174,14.3589744 C24,10.7122507 26.3414634,7.52136752 26.3414634,4.1025641 C26.3414634,3.07692308 26.0069686,2.05128205 25.2264808,1.25356125 C24.2229965,0.227920228 21.7700348,0 20.4320557,0 C19.0940767,0 16.7526132,0.227920228 15.7491289,1.25356125 C14.8571429,2.16524217 14.6341463,3.07692308 14.6341463,4.21652422 C14.6341463,7.63532764 16.8641115,10.7122507 17.9790941,14.3589744 C18.7595819,17.0940171 18.7595819,19.4871795 20.4320557,19.4871795 Z M5.59388079,22.5641026 C7.89724347,22.5641026 9.87155434,22.0952381 12.3942849,22.0952381 C13.8201761,22.0952381 15.3557512,22.4468864 16.4525906,22.4468864 C17.6591139,22.4468864 18.5365854,21.978022 18.5365854,20.8058608 C18.5365854,19.3992674 16.4525906,18.6959707 14.3685958,17.1721612 C12.174917,15.5311355 10.0909222,12.8351648 8.22629528,11.6630037 C7.01977197,10.8424908 5.9229326,10.2564103 4.82609323,10.2564103 C0.987155434,10.2564103 0,16.4688645 0,18.4615385 C0,21.5091575 2.19367874,22.5641026 5.59388079,22.5641026 Z M34.0028694,22.5641026 C36.8378766,22.5641026 40,21.978022 40,18.5787546 C40,17.2893773 39.6728838,16 39.3457676,15.0622711 C38.5824964,12.8351648 37.492109,10.2564103 35.2022956,10.2564103 C34.1119082,10.2564103 32.9124821,10.8424908 31.713056,11.6630037 C29.8593974,12.8351648 27.7876614,15.5311355 25.4978479,17.1721612 C23.5351506,18.6959707 21.4634146,19.2820513 21.4634146,20.8058608 C21.4634146,21.8608059 22.2266858,22.3296703 23.4261119,22.3296703 C24.4074605,22.3296703 25.8249641,22.0952381 27.3515065,22.0952381 C29.5322812,22.0952381 32.0401722,22.5641026 34.0028694,22.5641026 Z M12.0859119,40 C14.1609028,40 15.2530033,38.1185693 16.0174736,36.0019598 C16.7819439,33.8853503 17.1095741,30.3576678 17.9832545,27.6531112 C18.6385147,25.6540911 19.5121951,24.1254287 19.5121951,22.9495345 C19.5121951,22.243998 18.9661449,21.5384615 18.2016746,21.5384615 C17.000364,21.5384615 15.7990535,23.1847134 14.0516928,24.5957864 C11.9767019,26.2420382 8.91882053,27.6531112 7.28066982,29.1817736 C5.75172916,30.5928466 4.87804878,31.7687408 4.87804878,33.5325821 C4.87804878,35.2964233 6.62540954,37.0602646 7.93593011,38.1185693 C9.02803058,38.9416952 10.6661813,40 12.0859119,40 Z M27.9140881,40 C29.3338187,40 30.9719694,39.1058514 32.0640699,38.2117028 C33.2653804,37.2057857 35.1219512,35.5292571 35.1219512,33.7409599 C35.1219512,32.1761999 34.0298507,31.0585141 32.6101201,29.8290598 C30.9719694,28.3760684 28.0232981,27.0348455 25.8390972,25.3583169 C24.2009465,24.1288626 22.999636,22.5641026 21.7983254,22.5641026 C20.9246451,22.5641026 20.4878049,23.234714 20.4878049,24.017094 C20.4878049,25.1347798 21.2522752,26.5877712 21.9075355,28.3760684 C22.7812159,30.834977 23.2180561,34.1880342 23.9825264,36.1998685 C24.7469967,38.3234714 25.8390972,40 27.9140881,40 Z"/>
</svg>
