<svg viewBox="0 0 48 48" xmlns="http://www.w3.org/2000/svg"><rect fill="#9fdbf3" height="7" rx="3" transform="matrix(-1 0 0 -1 30 35)" width="6" x="12" y="14"/><path d="m20.82 26.54h-.31a3 3 0 0 0 -2.51 3v2.46h-9v-4.46a3 3 0 0 1 2.51-3 21.89 21.89 0 0 1 7 0 3 3 0 0 1 2.31 2z" fill="#9fdbf3"/><path d="m18 17v1a1 1 0 0 1 0 .24 3 3 0 0 1 -5-2.24v-1a1 1 0 0 1 0-.24 3 3 0 0 1 5 2.24z" fill="#b2e5fb"/><path d="m21 27.54v2.46h-4.54a4.46 4.46 0 0 1 -4.46-4.46 2.84 2.84 0 0 1 .19-1.05 18.86 18.86 0 0 1 2.81-.19 19.85 19.85 0 0 1 3.18.24h.31a3 3 0 0 1 2.51 3z" fill="#b2e5fb"/><path d="m24 46a22 22 0 1 1 22-22 22 22 0 0 1 -22 22zm0-42a20 20 0 1 0 20 20 20 20 0 0 0 -20-20z" fill="#ffde76"/><path d="m10.57 11.56a1 1 0 0 1 -.71-.29l-2.86-2.83a1 1 0 1 1 1.44-1.44l2.83 2.83a1 1 0 0 1 0 1.41 1 1 0 0 1 -.7.32z" fill="#f8834b"/><path d="m7.74 41.26a1 1 0 0 1 -.74-.26 1 1 0 0 1 0-1.41l2.83-2.83a1 1 0 0 1 1.41 1.41l-2.8 2.83a1 1 0 0 1 -.7.26z" fill="#f8834b"/><path d="m40.26 41.26a1 1 0 0 1 -.7-.29l-2.83-2.83a1 1 0 0 1 1.41-1.41l2.86 2.83a1 1 0 0 1 0 1.44 1 1 0 0 1 -.74.26z" fill="#f8834b"/><path d="m37.43 11.56a1 1 0 0 1 -.7-.29 1 1 0 0 1 0-1.41l2.83-2.86a1 1 0 1 1 1.44 1.44l-2.83 2.83a1 1 0 0 1 -.74.29z" fill="#f8834b"/><g fill="#f26674"><path d="m22 6a1 1 0 0 1 -1-1v-4a1 1 0 0 1 2 0v4a1 1 0 0 1 -1 1z"/><path d="m26 6a1 1 0 0 1 -1-1v-4a1 1 0 0 1 2 0v4a1 1 0 0 1 -1 1z"/><path d="m5 27h-4a1 1 0 0 1 0-2h4a1 1 0 0 1 0 2z"/><path d="m5 23h-4a1 1 0 0 1 0-2h4a1 1 0 0 1 0 2z"/><path d="m26 48a1 1 0 0 1 -1-1v-4a1 1 0 0 1 2 0v4a1 1 0 0 1 -1 1z"/><path d="m22 48a1 1 0 0 1 -1-1v-4a1 1 0 0 1 2 0v4a1 1 0 0 1 -1 1z"/><path d="m47 23h-4a1 1 0 0 1 0-2h4a1 1 0 0 1 0 2z"/><path d="m47 27h-4a1 1 0 0 1 0-2h4a1 1 0 0 1 0 2z"/></g><path d="m27 19v1a1 1 0 0 1 0 .24 3 3 0 0 1 -6-.24v-1a2.93 2.93 0 0 1 1-2.24 3 3 0 0 1 5 2.24z" fill="#6fabe6"/><path d="m27 19v1a1 1 0 0 1 0 .24 3 3 0 0 1 -5-2.24v-1a1 1 0 0 1 0-.24 3 3 0 0 1 5 2.24z" fill="#82bcf4"/><path d="m30 29.54v4.46h-12v-4.46a3 3 0 0 1 2.51-3h.31l.37-.05a18.86 18.86 0 0 1 2.81-.19 19.85 19.85 0 0 1 3.18.24h.31a3 3 0 0 1 2.51 3z" fill="#6fabe6"/><path d="m30 29.54v2.46h-4.54a4.46 4.46 0 0 1 -4.46-4.46 2.84 2.84 0 0 1 .19-1.05 18.86 18.86 0 0 1 2.81-.19 19.85 19.85 0 0 1 3.18.24h.31a3 3 0 0 1 2.51 3z" fill="#82bcf4"/><rect fill="#9fdbf3" height="7" rx="3" width="6" x="30" y="14"/><path d="m39 27.54v4.46h-9v-2.46a3 3 0 0 0 -2.51-3h-.31a3 3 0 0 1 2.33-2 21.89 21.89 0 0 1 7 0 3 3 0 0 1 2.49 3z" fill="#9fdbf3"/><path d="m36 17v1a1 1 0 0 1 0 .24 3 3 0 0 1 -5-2.24v-1a1 1 0 0 1 0-.24 3 3 0 0 1 5 2.24z" fill="#b2e5fb"/><path d="m39 27.54v2.46h-4.54a4.46 4.46 0 0 1 -4.46-4.46 2.84 2.84 0 0 1 .19-1.05 18.86 18.86 0 0 1 2.81-.19 19.85 19.85 0 0 1 3.18.24h.31a3 3 0 0 1 2.51 3z" fill="#b2e5fb"/><path d="m47 25h-1c0-.33 0-.66 0-1s0-.67 0-1h1a1 1 0 0 0 0-2h-1.21a22 22 0 0 0 -5.55-11.83l.76-.73a1 1 0 1 0 -1.44-1.44l-.73.73a22 22 0 0 0 -11.83-5.52v-1.21a1 1 0 0 0 -2 0v1c-.33 0-.66 0-1 0s-.67 0-1 0v-1a1 1 0 0 0 -2 0v1.21a22 22 0 0 0 -11.83 5.55l-.73-.76a1 1 0 1 0 -1.44 1.44l.73.73a22 22 0 0 0 -5.52 11.83h-1.21a1 1 0 0 0 0 2h1v1s0 .67 0 1h-1a1 1 0 0 0 0 2h1.21a22 22 0 0 0 5.55 11.83l-.76.73a1 1 0 0 0 0 1.44 1 1 0 0 0 1.41 0l.73-.73a22 22 0 0 0 11.86 5.52v1.21a1 1 0 0 0 2 0v-1h1s.67 0 1 0v1a1 1 0 0 0 2 0v-1.21a22 22 0 0 0 11.83-5.55l.73.73a1 1 0 0 0 1.44.03 1 1 0 0 0 0-1.41l-.73-.73a22 22 0 0 0 5.52-11.86h1.21a1 1 0 0 0 0-2zm-8.19 12.4-.67-.67a1 1 0 0 0 -1.41 1.41l.66.67a19.83 19.83 0 0 1 -10.39 4.94v-.75a1 1 0 0 0 -2 0v1c-.33 0-.66 0-1 0s-.67 0-1 0v-1a1 1 0 0 0 -2 0v.75a19.83 19.83 0 0 1 -10.39-4.94l.66-.67a1 1 0 0 0 -1.41-1.41l-.67.67a19.9 19.9 0 0 1 -4.94-10.4h.75a1 1 0 0 0 0-2h-1c0-.33 0-.66 0-1s0-.67 0-1h1a1 1 0 0 0 0-2h-.75a19.9 19.9 0 0 1 4.94-10.4l.67.67a1 1 0 0 0 1.41 0 1 1 0 0 0 0-1.41l-.66-.67a19.83 19.83 0 0 1 10.39-4.94v.75a1 1 0 0 0 2 0v-1h1s.67 0 1 0v1a1 1 0 0 0 2 0v-.75a19.83 19.83 0 0 1 10.39 4.94l-.66.67a1 1 0 0 0 0 1.41 1 1 0 0 0 1.41 0l.67-.67a19.9 19.9 0 0 1 4.94 10.4h-.75a1 1 0 0 0 0 2h1v1s0 .67 0 1h-1a1 1 0 0 0 0 2h.75a19.9 19.9 0 0 1 -4.94 10.4z"/><path d="m24 24a4 4 0 0 0 4-4v-1a4 4 0 0 0 -8 0v1a4 4 0 0 0 4 4zm-2-5a2 2 0 0 1 4 0v1a2 2 0 0 1 -4 0z"/><path d="m33 22a4 4 0 0 0 4-4v-1a4 4 0 0 0 -8 0v1a4 4 0 0 0 4 4zm-2-5a2 2 0 0 1 4 0v1a2 2 0 0 1 -4 0z"/><path d="m36.65 23.59a22.92 22.92 0 0 0 -7.3 0 4 4 0 0 0 -2.75 1.87 22.61 22.61 0 0 0 -5.2 0 4 4 0 0 0 -2.75-1.87 22.92 22.92 0 0 0 -7.3 0 4 4 0 0 0 -3.35 3.95v4.46a1 1 0 0 0 1 1h8v1a1 1 0 0 0 1 1h12a1 1 0 0 0 1-1v-1h8a1 1 0 0 0 1-1v-4.46a4 4 0 0 0 -3.35-3.95zm-26.65 7.41v-3.46a2 2 0 0 1 1.67-2 20.67 20.67 0 0 1 6.66 0 1.94 1.94 0 0 1 .9.4 4 4 0 0 0 -2.23 3.6v1.46zm19 2h-10v-3.46a2 2 0 0 1 1.67-2 20.12 20.12 0 0 1 6.66 0 2 2 0 0 1 1.67 2zm9-2h-7v-1.46a4 4 0 0 0 -2.23-3.54 2 2 0 0 1 .9-.4 20.67 20.67 0 0 1 6.66 0 2 2 0 0 1 1.67 2z"/><path d="m15 22a4 4 0 0 0 4-4v-1a4 4 0 0 0 -8 0v1a4 4 0 0 0 4 4zm-2-5a2 2 0 0 1 4 0v1a2 2 0 0 1 -4 0z"/></svg>