<svg viewBox="0 0 48 48" xmlns="http://www.w3.org/2000/svg"><path d="m5 4v34h-1a3 3 0 0 0 -3 3v-34a3 3 0 0 1 2-2.82 2.77 2.77 0 0 1 1-.18z" fill="#6fabe6"/><path d="m5 4v34a2 2 0 0 1 -2-2v-31.82a2.77 2.77 0 0 1 1-.18z" fill="#82bcf4"/><path d="m47 41a3.1 3.1 0 0 1 -.13.87 3 3 0 0 1 -2.87 2.13h-40a3 3 0 0 1 0-6h1v-28h38v28h1a3 3 0 0 1 3 3z" fill="#9fdbf3"/><path d="m47 41a3.1 3.1 0 0 1 -.13.87 3.1 3.1 0 0 1 -.87.13h-7a32 32 0 0 1 -32-32h36v28h1a3 3 0 0 1 3 3z" fill="#b2e5fb"/><path d="m47 7v34a3 3 0 0 0 -3-3h-1v-34h1a3 3 0 0 1 3 3z" fill="#6fabe6"/><path d="m32 18h-6a1 1 0 0 1 0-2h6a1 1 0 0 1 0 2z" fill="#edebf2"/><path d="m22 18h-6a1 1 0 0 1 0-2h6a1 1 0 0 1 0 2z" fill="#edebf2"/><path d="m31 26a1 1 0 0 1 -1-1v-1a6 6 0 0 0 -4.28-5.75 1 1 0 1 1 .56-1.92 8 8 0 0 1 5.72 7.67v1a1 1 0 0 1 -1 1z" fill="#edebf2"/><path d="m17 26a1 1 0 0 1 -1-1v-1a8 8 0 0 1 5.71-7.67 1 1 0 1 1 .58 1.92 6 6 0 0 0 -4.29 5.75v1a1 1 0 0 1 -1 1z" fill="#edebf2"/><path d="m9 33h30v6h-30z" fill="#df8761"/><path d="m39 33v4h-23a4 4 0 0 1 -4-4z" fill="#f29b75"/><g fill="#cc734c"><path d="m15 36v3h-2v-3a1 1 0 0 1 2 0z"/><path d="m20 37v2h-2v-2a1 1 0 0 1 2 0z"/><path d="m25 36v3h-2v-3a1 1 0 0 1 2 0z"/><path d="m35 36v3h-2v-3a1 1 0 0 1 2 0z"/><path d="m30 37v2h-2v-2a1 1 0 0 1 2 0z"/></g><path d="m43 4v34a2 2 0 0 0 2-2v-31.82a2.77 2.77 0 0 0 -1-.18z" fill="#82bcf4"/><circle cx="14" cy="17" fill="#374f68" r="2"/><circle cx="34" cy="17" fill="#374f68" r="2"/><path d="m22 15h4v4h-4z" fill="#db5669"/><path d="m15 25h4v4h-4z" fill="#db5669"/><path d="m29 25h4v4h-4z" fill="#db5669" transform="matrix(-1 0 0 -1 62 54)"/><path d="m16 17a1.89 1.89 0 0 1 -.18.82 1.89 1.89 0 0 1 -.82.18 2 2 0 0 1 -2-2 1.89 1.89 0 0 1 .18-.82 1.89 1.89 0 0 1 .82-.18 2 2 0 0 1 2 2z" fill="#425b72"/><path d="m19 25v3a3 3 0 0 1 -3-3z" fill="#f26674"/><path d="m36 17a1.89 1.89 0 0 1 -.18.82 1.89 1.89 0 0 1 -.82.18 2 2 0 0 1 -2-2 1.89 1.89 0 0 1 .18-.82 1.89 1.89 0 0 1 .82-.18 2 2 0 0 1 2 2z" fill="#425b72"/><path d="m33 25v3a3 3 0 0 1 -3-3z" fill="#f26674"/><path d="m26 15v3a3 3 0 0 1 -3-3z" fill="#f26674"/><path d="m44 3h-1a1 1 0 0 0 -1 1v5h-36v-5a1 1 0 0 0 -1-1h-1a4 4 0 0 0 -4 4v34a4 4 0 0 0 4 4h40a4 4 0 0 0 4-4v-34a4 4 0 0 0 -4-4zm0 2a2 2 0 0 1 2 2v30.54a4.16 4.16 0 0 0 -.47-.24 3.86 3.86 0 0 0 -.66-.2h-.17a4.05 4.05 0 0 0 -.7-.1zm-42 2a2 2 0 0 1 2-2v32a4.05 4.05 0 0 0 -.7.07h-.17a4.15 4.15 0 0 0 -.66.2 4.16 4.16 0 0 0 -.47.24zm42 36h-40a2 2 0 0 1 -2-2 2 2 0 0 1 2-2h1a1 1 0 0 0 1-1v-27h36v27a1 1 0 0 0 1 1h1a2 2 0 0 1 2 2 2 2 0 0 1 -2 2z"/><path d="m14 20a3 3 0 0 0 2.82-2h1.9a7.93 7.93 0 0 0 -2.72 6h-1a1 1 0 0 0 -1 1v4a1 1 0 0 0 1 1h4a1 1 0 0 0 1-1v-4a1 1 0 0 0 -1-1h-1a5.93 5.93 0 0 1 3-5.18v.18a1 1 0 0 0 1 1h4a1 1 0 0 0 1-1v-.19a5.68 5.68 0 0 1 1.24 1 5.93 5.93 0 0 1 1.76 4.19h-1a1 1 0 0 0 -1 1v4a1 1 0 0 0 1 1h4a1 1 0 0 0 1-1v-4a1 1 0 0 0 -1-1h-1a8 8 0 0 0 -2.34-5.66l-.39-.34h1.91a3 3 0 1 0 0-2h-4.18v-1a1 1 0 0 0 -1-1h-4a1 1 0 0 0 -1 1v1h-4.18a3 3 0 1 0 -2.82 4zm4 8h-2v-2h2zm14 0h-2v-2h2zm2-12a1 1 0 1 1 -1 1 1 1 0 0 1 1-1zm-11 0h2v2h-2zm-9 0a1 1 0 1 1 -1 1 1 1 0 0 1 1-1z"/><path d="m39 32h-30a1 1 0 0 0 -1 1v6a1 1 0 0 0 1 1h30a1 1 0 0 0 1-1v-6a1 1 0 0 0 -1-1zm-1 6h-3v-2a1 1 0 0 0 -2 0v2h-3v-1a1 1 0 0 0 -2 0v1h-3v-2a1 1 0 0 0 -2 0v2h-3v-1a1 1 0 0 0 -2 0v1h-3v-2a1 1 0 0 0 -2 0v2h-3v-4h28z"/></svg>