<svg viewBox="0 0 48 48" xmlns="http://www.w3.org/2000/svg"><path d="m16 15h6v32h-6z" fill="#f16f39"/><path d="m27 21h6v26h-6z" fill="#9dcc6b"/><path d="m38 7h6v40h-6z" fill="#f16f39"/><path d="m5 29h6v18h-6z" fill="#9dcc6b"/><path d="m11 29v16a3 3 0 0 1 -3-3v-13z" fill="#b5e08c"/><path d="m22 15v30a3 3 0 0 1 -3-3v-27z" fill="#f8834b"/><path d="m33 21v24a3 3 0 0 1 -3-3v-21z" fill="#b5e08c"/><path d="m44 7v38a3 3 0 0 1 -3-3v-35z" fill="#f8834b"/><path d="m47 48h-46a1 1 0 0 1 -1-1v-46a1 1 0 0 1 2 0v45h45a1 1 0 0 1 0 2z" fill="#425b72"/><path d="m47 46h-2v-39a1 1 0 0 0 -1-1h-6a1 1 0 0 0 -1 1v39h-3v-25a1 1 0 0 0 -1-1h-6a1 1 0 0 0 -1 1v25h-3v-31a1 1 0 0 0 -1-1h-6a1 1 0 0 0 -1 1v31h-3v-17a1 1 0 0 0 -1-1h-6a1 1 0 0 0 -1 1v17h-2v-45a1 1 0 0 0 -2 0v46a1 1 0 0 0 1 1h46a1 1 0 0 0 0-2zm-41 0v-16h4v16zm11 0v-30h4v30zm11 0v-24h4v24zm11 0v-38h4v38z"/></svg>