<svg viewBox="0 0 48 48" xmlns="http://www.w3.org/2000/svg"><path d="m44.3 29.25a3.94 3.94 0 0 1 -.66.75 4 4 0 0 1 1.36 3 4 4 0 0 1 -4 4h-.13a4.17 4.17 0 0 1 .13 1 4 4 0 0 1 -3 3.87 3.64 3.64 0 0 1 -1 .13 3.64 3.64 0 0 1 -.13 1 4 4 0 0 1 -5.77 2.53 4 4 0 0 1 -3.1 1.47 4 4 0 0 1 -4-4 4 4 0 0 1 -4 4 4 4 0 0 1 -3.1-1.48 4 4 0 0 1 -5.77-2.52 3.64 3.64 0 0 1 -.13-1 3.64 3.64 0 0 1 -1-.13 4 4 0 0 1 -3-3.87 4.17 4.17 0 0 1 .13-1h-.13a4 4 0 0 1 -4-4 4 4 0 0 1 1.36-3 4 4 0 0 1 0-6 4 4 0 0 1 2-6.95 4.21 4.21 0 0 1 .64-.05h.38a3.36 3.36 0 0 1 -.66-.75 3.86 3.86 0 0 1 -.72-2.25 4 4 0 0 1 3.57-4h.43a3.64 3.64 0 0 1 .57 0 3.7 3.7 0 0 1 -.4-.91 3.86 3.86 0 0 1 -.17-1.09 4 4 0 0 1 4-4 4.15 4.15 0 0 1 1.12.16 3.7 3.7 0 0 1 .91.4 4.43 4.43 0 0 1 .23-1 4 4 0 0 1 7.74 1.44 4 4 0 0 1 7.73-1.41 3.94 3.94 0 0 1 .24 1 3.7 3.7 0 0 1 .91-.4 4.15 4.15 0 0 1 1.12-.19 4 4 0 0 1 4 4 3.86 3.86 0 0 1 -.17 1.13 3.7 3.7 0 0 1 -.4.91 3.64 3.64 0 0 1 .57-.04h.43a4 4 0 0 1 3.57 4 3.86 3.86 0 0 1 -.72 2.27 3.36 3.36 0 0 1 -.66.75l.38-.02a4.21 4.21 0 0 1 .62.05 4 4 0 0 1 2 7 4 4 0 0 1 .66 5.25z" fill="#db5669"/><path d="m45 27a4 4 0 0 1 -1.36 3 4 4 0 0 1 -2.64 7h-.13a4.17 4.17 0 0 1 .13 1 4 4 0 0 1 -4 4 4 4 0 0 1 -5.9 3.52 3.92 3.92 0 0 1 -2.76 1.48 1.88 1.88 0 0 1 -.34 0 4 4 0 0 1 -4-4 4 4 0 0 1 -3.65 4h-.35a3.66 3.66 0 0 1 -1-.13 3.92 3.92 0 0 1 -2.09-1.35 3.93 3.93 0 0 1 -1.56.46 4 4 0 0 1 -1.35-2.98 4 4 0 0 1 -4-4 4.17 4.17 0 0 1 .13-1h-.13a4 4 0 0 1 -2.64-7 4 4 0 0 1 0-6 4 4 0 0 1 2.64-7h.38a4 4 0 0 1 2.62-7 3.64 3.64 0 0 1 .57 0 4 4 0 0 1 3.43-6 3.92 3.92 0 0 1 2 .56 4 4 0 0 1 3.66-3.56 4 4 0 0 1 1.34 3 4 4 0 0 1 4-4 4 4 0 0 1 4 3.56 3.92 3.92 0 0 1 2-.56 3.59 3.59 0 0 1 .47 0 4 4 0 0 1 2.2 1 4 4 0 0 1 .76 5 3.64 3.64 0 0 1 .57 0 4 4 0 0 1 2.51.89 1.09 1.09 0 0 1 -.08.15h.23a4 4 0 0 1 0 6l.34-.04a4 4 0 0 1 2.64 1 4 4 0 0 1 0 6 4 4 0 0 1 1.36 3z" fill="#f26674"/><path d="m40.66 11h-.23a1.09 1.09 0 0 0 .08-.15z" fill="#f26674"/><g fill="#c4455e"><path d="m12.87 12a1 1 0 0 1 -1.37.37 4.89 4.89 0 0 1 -1.73-1.68 1.05 1.05 0 0 1 -.2-.6l.43-.09a3.64 3.64 0 0 1 .57 0 3.7 3.7 0 0 1 -.4-.91.9.9 0 0 1 .4-.09 1 1 0 0 1 .68.27 1.16 1.16 0 0 1 .2.24 2.76 2.76 0 0 0 1.05 1 1 1 0 0 1 .37 1.49z"/><path d="m17.78 6.32a1 1 0 0 1 -.62.22 1 1 0 0 1 -.78-.38 3 3 0 0 0 -.84-.73 1 1 0 0 1 -.42-1.27 3.7 3.7 0 0 1 .91.4 4.43 4.43 0 0 1 .23-1 .77.77 0 0 1 .25.1 4.89 4.89 0 0 1 1.42 1.23 1 1 0 0 1 -.15 1.43z"/><path d="m10.38 18.63a1 1 0 0 1 -1.38.11 3 3 0 0 0 -1.71-.74 1 1 0 0 1 -.91-1 4.21 4.21 0 0 1 .62 0h.38a3.36 3.36 0 0 1 -.66-.75 1 1 0 0 1 .75-.25 5 5 0 0 1 2.8 1.2 1 1 0 0 1 .11 1.43z"/><path d="m8 29a1 1 0 0 1 -1 1 3 3 0 0 0 -2 .75 1 1 0 0 1 -.66.25 1 1 0 0 1 -.66-.25 3.94 3.94 0 0 1 .68-.75 3.94 3.94 0 0 1 -.66-.75 5 5 0 0 1 3.3-1.25 1 1 0 0 1 1 1z"/><path d="m12.75 40a3 3 0 0 0 -.75 2 1 1 0 0 1 -.87 1 3.64 3.64 0 0 1 -.13-1 3.64 3.64 0 0 1 -1-.13 4.9 4.9 0 0 1 1.24-3.17 1 1 0 0 1 1.51 1.3z"/><path d="m32.46 5.43a3 3 0 0 0 -.84.73 1 1 0 0 1 -.78.38 1 1 0 0 1 -.62-.22 1 1 0 0 1 -.16-1.4 4.89 4.89 0 0 1 1.42-1.23.77.77 0 0 1 .25-.1 3.94 3.94 0 0 1 .24 1 3.7 3.7 0 0 1 .91-.4 1 1 0 0 1 -.42 1.24z"/><path d="m38.43 10a1 1 0 0 1 -.22.62 4.78 4.78 0 0 1 -1.71 1.66 1 1 0 1 1 -1-1.74 2.76 2.76 0 0 0 1-1 1.06 1.06 0 0 1 .5-.41 1.12 1.12 0 0 1 .43-.13.9.9 0 0 1 .4.09 3.7 3.7 0 0 1 -.4.91 3.64 3.64 0 0 1 .57 0z"/><path d="m41.62 17.05a1 1 0 0 1 -.91 1 3 3 0 0 0 -1.68.72 1 1 0 0 1 -1.3-1.52 5 5 0 0 1 2.8-1.2 1 1 0 0 1 .75.25 3.36 3.36 0 0 1 -.66.75l.38-.05a4.21 4.21 0 0 1 .62.05z"/><path d="m43.64 30a3.94 3.94 0 0 1 .66.75 1 1 0 0 1 -.66.25 1 1 0 0 1 -.66-.25 3 3 0 0 0 -1.98-.75 1 1 0 0 1 0-2 5 5 0 0 1 3.3 1.25 3.94 3.94 0 0 1 -.66.75z"/><path d="m38 41.87a3.64 3.64 0 0 1 -1 .13 3.64 3.64 0 0 1 -.13 1 1 1 0 0 1 -.87-1 3 3 0 0 0 -.75-2 1 1 0 1 1 1.5-1.32 4.9 4.9 0 0 1 1.25 3.19z"/></g><path d="m28.32 24.16a5.27 5.27 0 0 0 -1.32 3.5v.34h-6v-.52a5.18 5.18 0 0 0 -1.44-3.48 6 6 0 0 1 2.82-9.8 6 6 0 0 1 7.54 4.8 6 6 0 0 1 -1.6 5.16z" fill="#fc6"/><path d="m28.32 24.16a4.85 4.85 0 0 0 -1.32 2.84h-3.47a.53.53 0 0 1 -.53-.53 5.14 5.14 0 0 0 -1.44-3.47 6 6 0 0 1 .82-8.8 6 6 0 0 1 7.54 4.8 6 6 0 0 1 -1.6 5.16z" fill="#ffde76"/><path d="m26 32v1a1.89 1.89 0 0 1 -.18.82 2 2 0 0 1 -3.82-.82v-1z" fill="#7c7d7d"/><path d="m26 32v1a1.89 1.89 0 0 1 -.18.82 1.89 1.89 0 0 1 -.82.18 2 2 0 0 1 -2-2z" fill="#919191"/><path d="m27 28v3a1 1 0 0 1 -1 1h-4a1 1 0 0 1 -1-1v-3z" fill="#dad7e5"/><path d="m27 28v3h-1a3 3 0 0 1 -3-3z" fill="#edebf2"/><path d="m24 11a1 1 0 0 1 -1-1v-1a1 1 0 0 1 2 0v1a1 1 0 0 1 -1 1z" fill="#edebf2"/><path d="m16.93 13.93a1 1 0 0 1 -.71-.29l-.7-.71a1 1 0 0 1 0-1.42 1 1 0 0 1 1.41 0l.71.71a1 1 0 0 1 0 1.42 1 1 0 0 1 -.71.29z" fill="#edebf2"/><path d="m14 21h-1a1 1 0 0 1 0-2h1a1 1 0 0 1 0 2z" fill="#edebf2"/><path d="m16.22 28.78a1 1 0 0 1 -.7-.3 1 1 0 0 1 0-1.41l.7-.71a1 1 0 0 1 1.42 1.42l-.71.7a1 1 0 0 1 -.71.3z" fill="#edebf2"/><path d="m31.07 13.93a1 1 0 0 1 -.71-.29 1 1 0 0 1 0-1.42l.71-.71a1 1 0 1 1 1.41 1.42l-.7.71a1 1 0 0 1 -.71.29z" fill="#edebf2"/><path d="m35 21h-1a1 1 0 0 1 0-2h1a1 1 0 0 1 0 2z" fill="#edebf2"/><path d="m31.78 28.78a1 1 0 0 1 -.71-.3l-.71-.7a1 1 0 0 1 1.42-1.42l.7.71a1 1 0 0 1 -.7 1.71z" fill="#edebf2"/><path d="m23.5 23a1 1 0 0 1 -.6-.2 1 1 0 0 1 -.2-1.4l.55-.73-.55-.74a1 1 0 0 1 0-1.2l1-1.33a1 1 0 1 1 1.6 1.2l-.55.73.55.74a1 1 0 0 1 0 1.2l-1 1.33a1 1 0 0 1 -.8.4z" fill="#f8834b"/><path d="m16.16 41.09a1 1 0 0 1 -.7-.28 1 1 0 0 1 0-1.42 2 2 0 0 0 .54-1.39 2 2 0 0 0 -.59-1.41 1 1 0 1 1 1.42-1.42 4 4 0 0 1 0 5.61 1 1 0 0 1 -.67.31z" fill="#c4455e"/><path d="m20 42a1 1 0 0 1 -1-1 2.3 2.3 0 0 0 -.71-1.42 1.54 1.54 0 0 0 -1.21-.4 1 1 0 0 1 -1.08-.91 1 1 0 0 1 .91-1.09 3.5 3.5 0 0 1 2.74.93 4.2 4.2 0 0 1 1.35 2.89 1 1 0 0 1 -1 1z" fill="#c4455e"/><path d="m9.49 34.24a.92.92 0 0 1 -.36-.07 1 1 0 0 1 -.57-1.29 4 4 0 0 1 5.12-2.29 1 1 0 1 1 -.7 1.87 2 2 0 0 0 -1.5 0 2 2 0 0 0 -1.06 1.11 1 1 0 0 1 -.93.67z" fill="#c4455e"/><path d="m11.25 32.52a1 1 0 0 1 -.87-.52 3.44 3.44 0 0 1 -.25-2.87 4.2 4.2 0 0 1 2.1-2.41 1 1 0 1 1 .8 1.83 2.3 2.3 0 0 0 -1 1.22 1.49 1.49 0 0 0 .1 1.23 1 1 0 0 1 -.88 1.48z" fill="#c4455e"/><path d="m38.51 34.24a1 1 0 0 1 -.93-.63 2 2 0 0 0 -1.06-1.11 2 2 0 0 0 -1.5 0 1 1 0 1 1 -.7-1.87 4 4 0 0 1 5.12 2.29 1 1 0 0 1 -.56 1.29 1 1 0 0 1 -.37.03z" fill="#c4455e"/><path d="m36.75 32.52a1 1 0 0 1 -.88-1.52 1.49 1.49 0 0 0 .13-1.23 2.3 2.3 0 0 0 -1-1.22 1 1 0 1 1 .8-1.83 4.2 4.2 0 0 1 2.1 2.41 3.48 3.48 0 0 1 -.27 2.87 1 1 0 0 1 -.88.52z" fill="#c4455e"/><path d="m31.84 41.09a1 1 0 0 1 -.71-.31 4 4 0 0 1 -1.13-2.78 4 4 0 0 1 1.17-2.83 1 1 0 1 1 1.41 1.42 2 2 0 0 0 0 2.8 1 1 0 0 1 0 1.42 1 1 0 0 1 -.74.28z" fill="#c4455e"/><path d="m28 42a1 1 0 0 1 -1-1 4.2 4.2 0 0 1 1.36-2.89 3.51 3.51 0 0 1 2.74-.93 1 1 0 0 1 .9 1.09 1 1 0 0 1 -1.09.91 1.53 1.53 0 0 0 -1.21.4 2.3 2.3 0 0 0 -.7 1.42 1 1 0 0 1 -1 1z" fill="#c4455e"/><path d="m45 24a5 5 0 0 0 -2.52-7.78 5 5 0 0 0 -3.6-7.14 5 5 0 0 0 -6.22-5.9 5 5 0 0 0 -8.66-1.18 5 5 0 0 0 -8.66 1.18 5 5 0 0 0 -6.22 5.9 5 5 0 0 0 -3.6 7.14 5 5 0 0 0 -2.52 7.78 5 5 0 0 0 0 6 5 5 0 0 0 3 7.9v.1a5 5 0 0 0 4.08 4.92 5 5 0 0 0 4.92 4.08 5.26 5.26 0 0 0 1.66-.28 5 5 0 0 0 3.34 1.28 5 5 0 0 0 4-2 5 5 0 0 0 4 2 5 5 0 0 0 3.34-1.28 5.26 5.26 0 0 0 1.66.28 5 5 0 0 0 4.92-4.08 5 5 0 0 0 4.08-4.92v-.1a5 5 0 0 0 3-7.9 5 5 0 0 0 0-6zm-4 12a1 1 0 0 0 -1.11 1.23 3.07 3.07 0 0 1 .11.77 3 3 0 0 1 -2.15 2.86 4.89 4.89 0 0 0 -1.1-2.16 1 1 0 1 0 -1.5 1.3 3 3 0 0 1 -3.68 4.62 1 1 0 0 0 -1.25.25 2.93 2.93 0 0 1 -2.32 1.13 3 3 0 0 1 -3-3 1 1 0 0 0 -2 0 3 3 0 0 1 -3 3 2.93 2.93 0 0 1 -2.32-1.11 1 1 0 0 0 -1.25-.25 3 3 0 0 1 -3.68-4.64 1 1 0 0 0 -1.5-1.32 4.89 4.89 0 0 0 -1.1 2.16 3 3 0 0 1 -2.15-2.84 3.07 3.07 0 0 1 .1-.77 1 1 0 0 0 -.26-.94 1 1 0 0 0 -.84-.29 3 3 0 0 1 -2-5.25 3 3 0 0 1 2-.75 1 1 0 0 0 0-2 5 5 0 0 0 -2.48.67 3 3 0 0 1 .48-3.92 1 1 0 0 0 0-1.5 3 3 0 0 1 2-5.25h.29a3.09 3.09 0 0 1 1.71.74 1 1 0 0 0 1.3-1.52 5.12 5.12 0 0 0 -2.4-1.13 2.94 2.94 0 0 1 -.9-2.09 3 3 0 0 1 3-3 4.9 4.9 0 0 0 1.47 1.32 1 1 0 0 0 1-1.74 2.76 2.76 0 0 1 -1.05-1 3 3 0 0 1 2.58-4.58 2.93 2.93 0 0 1 1.52.42 3 3 0 0 1 .84.73 1 1 0 0 0 .78.38 1 1 0 0 0 .62-.22 1 1 0 0 0 .16-1.4 5.1 5.1 0 0 0 -.81-.8 3 3 0 0 1 5.89.89 1 1 0 0 0 2 0 3 3 0 0 1 5.87-.88 5.1 5.1 0 0 0 -.81.8 1 1 0 0 0 .16 1.4 1 1 0 0 0 .62.22 1 1 0 0 0 .78-.38 3 3 0 0 1 .84-.73 2.93 2.93 0 0 1 1.54-.43 3 3 0 0 1 2.57 4.53 2.76 2.76 0 0 1 -1 1 1 1 0 0 0 1 1.74 4.9 4.9 0 0 0 1.43-1.27 3 3 0 0 1 3 3 2.94 2.94 0 0 1 -.87 2.09 5.12 5.12 0 0 0 -2.4 1.13 1 1 0 0 0 1.27 1.52 3 3 0 0 1 1.71-.74 3 3 0 0 1 3.29 3 3 3 0 0 1 -1 2.25 1 1 0 0 0 0 1.5 3 3 0 0 1 .5 3.92 5 5 0 0 0 -2.5-.67 1 1 0 0 0 0 2 3 3 0 0 1 2 .75 3 3 0 0 1 -2 5.25z"/><path d="m27 32.72a2 2 0 0 0 1-1.72v-3.34a4 4 0 0 1 1-2.81 6.94 6.94 0 0 0 1.87-6 7 7 0 0 0 -6.07-5.83 7 7 0 0 0 -6 11.66 4.17 4.17 0 0 1 1.2 2.8v3.52a2 2 0 0 0 1 1.72v.28a3 3 0 0 0 6 0zm-5-3.72h4v2h-4zm-3-9a5 5 0 0 1 1.68-3.74 4.92 4.92 0 0 1 3.93-1.26 5 5 0 0 1 4.33 4.15 5 5 0 0 1 -1.34 4.27 5.89 5.89 0 0 0 -1.6 3.58h-4a6.2 6.2 0 0 0 -1.68-3.64 5 5 0 0 1 -1.32-3.36zm5 14a1 1 0 0 1 -1-1h2a1 1 0 0 1 -1 1z"/><path d="m24 11a1 1 0 0 0 1-1v-1a1 1 0 0 0 -2 0v1a1 1 0 0 0 1 1z"/><path d="m16.22 13.64a1 1 0 0 0 1.42 0 1 1 0 0 0 0-1.42l-.71-.71a1 1 0 0 0 -1.41 0 1 1 0 0 0 0 1.42z"/><path d="m14 19h-1a1 1 0 0 0 0 2h1a1 1 0 0 0 0-2z"/><path d="m16.22 28.78a1 1 0 0 0 .71-.3l.71-.7a1 1 0 0 0 -1.42-1.42l-.7.71a1 1 0 0 0 0 1.41 1 1 0 0 0 .7.3z"/><path d="m31.07 13.93a1 1 0 0 0 .71-.29l.7-.71a1 1 0 1 0 -1.41-1.42l-.71.71a1 1 0 0 0 0 1.42 1 1 0 0 0 .71.29z"/><path d="m35 21a1 1 0 0 0 0-2h-1a1 1 0 0 0 0 2z"/><path d="m31.78 26.36a1 1 0 0 0 -1.42 1.42l.71.7a1 1 0 0 0 .71.3 1 1 0 0 0 .7-1.71z"/><path d="m23.25 20.67-.55.73a1 1 0 0 0 .2 1.4 1 1 0 0 0 .6.2 1 1 0 0 0 .8-.4l1-1.33a1 1 0 0 0 0-1.2l-.55-.74.55-.73a1 1 0 1 0 -1.6-1.2l-1 1.33a1 1 0 0 0 0 1.2z"/><path d="m17.93 37.25a4.06 4.06 0 0 0 -1.1-2.08 1 1 0 1 0 -1.42 1.42 2 2 0 0 1 .59 1.41 2 2 0 0 1 -.56 1.39 1 1 0 0 0 0 1.42 1 1 0 0 0 .7.28 1 1 0 0 0 .71-.31 4 4 0 0 0 .91-1.51 1.7 1.7 0 0 1 .51.31 2.3 2.3 0 0 1 .73 1.42 1 1 0 0 0 2 0 4.2 4.2 0 0 0 -1.36-2.89 3.57 3.57 0 0 0 -1.71-.86z"/><path d="m13.68 30.59a3.87 3.87 0 0 0 -1.75-.22 1.82 1.82 0 0 1 .09-.6 2.3 2.3 0 0 1 1-1.22 1 1 0 1 0 -.8-1.83 4.2 4.2 0 0 0 -2.1 2.41 3.46 3.46 0 0 0 -.12 1.87 4 4 0 0 0 -1.47 1.84 1 1 0 0 0 .57 1.29.92.92 0 0 0 .36.07 1 1 0 0 0 .93-.63 2 2 0 0 1 1.06-1.11 2 2 0 0 1 1.5 0 1 1 0 1 0 .7-1.87z"/><path d="m38 31a3.46 3.46 0 0 0 -.1-1.91 4.2 4.2 0 0 0 -2.1-2.41 1 1 0 1 0 -.8 1.83 2.3 2.3 0 0 1 1 1.22 1.82 1.82 0 0 1 .09.6 3.87 3.87 0 0 0 -1.75.22 1 1 0 1 0 .7 1.87 2 2 0 0 1 1.5 0 2 2 0 0 1 1.06 1.11 1 1 0 0 0 .93.63 1 1 0 0 0 .37-.07 1 1 0 0 0 .56-1.29 4 4 0 0 0 -1.46-1.8z"/><path d="m32.58 35.17a1 1 0 0 0 -1.41 0 4.06 4.06 0 0 0 -1.1 2.08 3.52 3.52 0 0 0 -1.71.86 4.2 4.2 0 0 0 -1.36 2.89 1 1 0 0 0 2 0 2.3 2.3 0 0 1 .71-1.42 1.7 1.7 0 0 1 .51-.31 4 4 0 0 0 .91 1.51 1 1 0 0 0 .71.31 1 1 0 0 0 .7-.28 1 1 0 0 0 0-1.42 2 2 0 0 1 0-2.8 1 1 0 0 0 .04-1.42z"/></svg>