<svg viewBox="0 0 48 48" xmlns="http://www.w3.org/2000/svg"><g fill="#919191"><path d="m33 43h-6a1 1 0 0 1 -1-1v-17a1 1 0 0 1 2 0v16h5a1 1 0 0 1 0 2z"/><path d="m39 34h-6a1 1 0 0 1 -1-1v-8a1 1 0 0 1 2 0v7h5a1 1 0 0 1 0 2z"/><path d="m15 42a1 1 0 0 1 -1-1v-5a1 1 0 0 1 1-1h5v-10a1 1 0 0 1 2 0v11a1 1 0 0 1 -1 1h-5v4a1 1 0 0 1 -1 1z"/><path d="m15 32h-6a1 1 0 0 1 0-2h5v-5a1 1 0 0 1 2 0v6a1 1 0 0 1 -1 1z"/></g><path d="m41.4 17.8a7.2 7.2 0 0 1 -7.2 7.2h-22.2a5.4 5.4 0 0 1 -3.82-9.22 6.18 6.18 0 0 1 .9-.72 4 4 0 0 1 -.08-.86 4.79 4.79 0 0 1 3.72-4.68 7 7 0 0 1 -.12-1.32 7.2 7.2 0 0 1 13.26-3.88 7.29 7.29 0 0 1 3.54-.92 7.21 7.21 0 0 1 7.2 7.2 2.75 2.75 0 0 1 0 .41 7.19 7.19 0 0 1 4.8 6.79z" fill="#6fabe6"/><path d="m41.4 17.8a7.2 7.2 0 0 1 -7.2 7.2h-22.34a5.4 5.4 0 0 1 -.68-8.21 6.18 6.18 0 0 1 .9-.72 4 4 0 0 1 -.08-.87 4.79 4.79 0 0 1 3.72-4.68 7 7 0 0 1 -.12-1.32 7.21 7.21 0 0 1 7.2-7.2 5.85 5.85 0 0 1 .73 0 7.25 7.25 0 0 1 2.33 2.28 6.84 6.84 0 0 1 1.55-.64 7.25 7.25 0 0 1 2-.28 7.12 7.12 0 0 1 3.71 1 7.19 7.19 0 0 1 3.48 6.24 2.75 2.75 0 0 1 0 .41 7.19 7.19 0 0 1 4.8 6.79z" fill="#82bcf4"/><circle cx="36" cy="42" fill="#9dcc6b" r="3"/><circle cx="42" cy="33" fill="#9dcc6b" r="3"/><circle cx="15" cy="44" fill="#9dcc6b" r="3"/><path d="m9 31a1 1 0 0 1 0 .24 3 3 0 0 1 -6-.24 2.93 2.93 0 0 1 1-2.24 3 3 0 0 1 5 2.24z" fill="#9dcc6b"/><path d="m9 31a1 1 0 0 1 0 .24 3 3 0 0 1 -5-2.24 1 1 0 0 1 0-.24 3 3 0 0 1 5 2.24z" fill="#b5e08c"/><path d="m18 44a1 1 0 0 1 0 .24 3 3 0 0 1 -5-2.24 1 1 0 0 1 0-.24 3 3 0 0 1 5 2.24z" fill="#b5e08c"/><path d="m39 42a1 1 0 0 1 0 .24 3 3 0 0 1 -5-2.24 1 1 0 0 1 0-.24 3 3 0 0 1 5 2.24z" fill="#b5e08c"/><path d="m45 33a1 1 0 0 1 0 .24 3 3 0 0 1 -5-2.24 1 1 0 0 1 0-.24 3 3 0 0 1 5 2.24z" fill="#b5e08c"/><path d="m42 29a4 4 0 0 0 -3.86 3h-4.14v-6h.2a8.21 8.21 0 0 0 8.2-8.2 8.18 8.18 0 0 0 -4.8-7.46 8.22 8.22 0 0 0 -11.42-7.29 8.2 8.2 0 0 0 -14.58 5.15v.62a5.77 5.77 0 0 0 -3.6 5.38v.4l-.53.47a6.34 6.34 0 0 0 -1.87 4.53 6.41 6.41 0 0 0 6.4 6.4h2v4h-4.14a4 4 0 1 0 0 2h5.14a1 1 0 0 0 1-1v-5h4v9h-5a1 1 0 0 0 -1 1v4.14a4 4 0 1 0 2 0v-3.14h5a1 1 0 0 0 1-1v-10h4v16a1 1 0 0 0 1 1h5.14a4 4 0 1 0 0-2h-4.14v-15h4v7a1 1 0 0 0 1 1h5.14a4 4 0 1 0 3.86-5zm-36 4a2 2 0 1 1 2-2 2 2 0 0 1 -2 2zm11 11a2 2 0 1 1 -2-2 2 2 0 0 1 2 2zm19-4a2 2 0 1 1 -2 2 2 2 0 0 1 2-2zm-28.4-20.4a4.35 4.35 0 0 1 1.29-3.11 4 4 0 0 1 .73-.58 1 1 0 0 0 .44-1.06 3.13 3.13 0 0 1 -.06-.65 3.79 3.79 0 0 1 2.94-3.71 1 1 0 0 0 .76-1.16 5.66 5.66 0 0 1 -.1-1.13 6.2 6.2 0 0 1 11.4-3.34 1 1 0 0 0 1.33.34 6.12 6.12 0 0 1 3-.8 6.21 6.21 0 0 1 6.2 6.2.87.87 0 0 1 0 .23 1 1 0 0 0 .72 1.17 6.2 6.2 0 0 1 -2.05 12h-22.2a4.4 4.4 0 0 1 -4.4-4.4zm34.4 15.4a2 2 0 1 1 2-2 2 2 0 0 1 -2 2z"/></svg>