<svg height="24px" xmlns="http://www.w3.org/2000/svg" viewBox="0 0 492.34 420.52"><path d="M492.34,404.31c-.26.38-.68.72-.78,1.14-2.9,12.06-11.39,17.26-23.48,14.21q-78.46-19.83-156.91-39.73-18.82-4.77-37.66-9.54c-14-3.52-19.1-16.34-11.2-28.52q34.59-53.3,69.27-106.53a23.54,23.54,0,0,0,3.3-6.68c-1.54.91-3.11,1.78-4.64,2.72Q180.18,323.68,30.09,415.9c-3.31,2-7.15,4-10.89,4.35C4.5,421.5-4.24,408.06,2.08,394.41Q22,351.48,41.89,308.59q68.63-147.9,137.26-295.81C183.86,2.61,191.76-1.8,200.89.67c11,3,16,14.51,10.9,25.51q-18,39.1-36.21,78.15Q118.14,228.07,60.69,351.8c-.59,1.28-1,2.65-1.94,5.08,6-3.68,11.09-6.72,16.12-9.81q153.85-94.65,307.68-189.35c5.22-3.22,10.5-5.05,16.52-3.42,11.57,3.13,16.48,16.39,9.77,26.83C395,202.65,381,224.06,367.05,245.5Q337,291.65,307,337.81c-.72,1.11-1.34,2.27-2.36,4,5.8,1.54,11.3,3.05,16.83,4.45q77.49,19.59,155,39.09c9.26,2.31,13.86,8.25,15.86,17Z" style="fill:#fff"/></svg>