<svg viewBox="0 0 48 48" xmlns="http://www.w3.org/2000/svg"><path d="m31 16a15 15 0 1 1 -15-15 14.89 14.89 0 0 1 15 15z" fill="#6fabe6"/><path d="m31 16a14.74 14.74 0 0 1 -3 9 15 15 0 0 1 -24-12 14.93 14.93 0 0 1 3-9 15 15 0 0 1 24 12z" fill="#82bcf4"/><path d="m27 16a11 11 0 1 1 -11-11 10.93 10.93 0 0 1 11 11z" fill="#dad7e5"/><path d="m27 16a10.93 10.93 0 0 1 -1.87 6.13 11 11 0 0 1 -15.26-15.26 11 11 0 0 1 17.13 9.13z" fill="#edebf2"/><path d="m35.81 32.98-2.83 2.83-4.46-4.46 1-1 1.83-1.83z" fill="#374f68"/><path d="m34.81 32a2.59 2.59 0 0 1 -3.66 0l-1.63-1.63 1.83-1.83z" fill="#425b72"/><path d="m46.12 46.12a3 3 0 0 1 -4.24 0l-8.88-8.9a1 1 0 0 1 0-1.41l.8-.79 2-2a1 1 0 0 1 1.41 0l8.9 8.9a2.74 2.74 0 0 1 .47.62 3 3 0 0 1 -.46 3.58z" fill="#374f68"/><path d="m46.59 42.5a2.74 2.74 0 0 1 -.47.62 3 3 0 0 1 -4.24 0l-8.1-8.12 2-2a1 1 0 0 1 1.41 0l8.9 8.9a2.74 2.74 0 0 1 .5.6z" fill="#425b72"/><path d="m32.06 27.81-.71.71-2.83 2.83-.71.71a2 2 0 0 1 -2.82 0l-2.53-2.52a15.75 15.75 0 0 0 1.91-1.1 15 15 0 0 0 5.17-6l2.46 2.46.09.09a2 2 0 0 1 -.03 2.82z" fill="#9dcc6b"/><path d="m32 24.9-.62.62-2.83 2.83-.71.71a2 2 0 0 1 -2.82 0l-.62-.62a15 15 0 0 0 5.17-6z" fill="#b5e08c"/><path d="m16 4a12 12 0 1 0 12 12 12 12 0 0 0 -12-12zm0 22a10 10 0 1 1 10-10 10 10 0 0 1 -10 10z"/><path d="m46.83 41.17-8.9-8.9a2 2 0 0 0 -1.93-.51l-3.25-3.24a3 3 0 0 0 0-4.24l-2-2a15.85 15.85 0 0 0 1.25-6.28 16 16 0 1 0 -16 16 15.85 15.85 0 0 0 6.24-1.27l2 2a3 3 0 0 0 2.12.87 3 3 0 0 0 2.12-.88l3.28 3.28a2.24 2.24 0 0 0 -.07.51 2 2 0 0 0 .58 1.42l8.9 8.9a4 4 0 0 0 5.66-5.66zm-44.83-25.17a14 14 0 1 1 14 14 14 14 0 0 1 -14-14zm23.69 15.35-1.58-1.58a16.15 16.15 0 0 0 5.66-5.66l1.58 1.58a1 1 0 0 1 0 1.42l-.71.7-2.83 2.83-.7.71a1 1 0 0 1 -1.42 0zm5.66-1.42 3 3-1.35 1.46-3-3zm14.06 15.48a2 2 0 0 1 -2.82 0l-8.9-8.89 2.83-2.83 8.89 8.9a2 2 0 0 1 0 2.82z"/></svg>