<svg viewBox="0 0 48 48" xmlns="http://www.w3.org/2000/svg"><path d="m15 3v20.1l-11.95 11.95a6.83 6.83 0 0 0 -1 1.2 5 5 0 0 0 -.29.5 4.91 4.91 0 0 0 -.33.74 4.56 4.56 0 0 0 -.18.52 4.74 4.74 0 0 0 -.16.65c0 .21-.07.41-.09.62a5.79 5.79 0 0 0 0 .72v-37a2 2 0 0 1 2-2h10a2 2 0 0 1 2 2z" fill="#dad7e5"/><path d="m3 1h10v36a7 7 0 0 1 -7 7 5.79 5.79 0 0 1 -.72 0c-.21 0-.41-.05-.62-.09a4.74 4.74 0 0 1 -.66-.2 4.56 4.56 0 0 1 -.52-.18 4.91 4.91 0 0 1 -.74-.33 5 5 0 0 1 -.5-.29 5.06 5.06 0 0 1 -.88-.68 6.86 6.86 0 0 1 -.36-2.23v-37a2 2 0 0 1 2-2z" fill="#edebf2"/><path d="m39.11 18.79-14.21 14.21h-16.9a7 7 0 0 0 -4.95 2l11.95-11.9 14.21-14.21a2 2 0 0 1 2.83 0l7.07 7.11a2 2 0 0 1 0 2.79z" fill="#dad7e5"/><path d="m32 8.89 7.11 7.11-25.45 25.41a7 7 0 0 1 -9.9 0 4.79 4.79 0 0 1 -.48-.53 6.13 6.13 0 0 1 -.38-.51 3.3 3.3 0 0 1 -.34-.57 4.52 4.52 0 0 1 -.25-.49 5.4 5.4 0 0 1 -.31-.76 5.09 5.09 0 0 1 -.12-.55 4.36 4.36 0 0 1 -.14-1.1 6.67 6.67 0 0 1 1.31-1.84l26.16-26.17a2 2 0 0 1 2.79 0z" fill="#edebf2"/><path d="m47 35v10a2 2 0 0 1 -2 2h-37a7 7 0 0 1 -7-7 5.79 5.79 0 0 1 0-.72c0-.21.05-.41.09-.62a4.74 4.74 0 0 1 .2-.66 4.56 4.56 0 0 1 .18-.52 4.91 4.91 0 0 1 .33-.74 5 5 0 0 1 .29-.5 7 7 0 0 1 3.68-2.88 6.86 6.86 0 0 1 2.23-.36h37a2 2 0 0 1 2 2z" fill="#dad7e5"/><path d="m47 35v10h-36a7 7 0 0 1 -7-7 5.79 5.79 0 0 1 0-.72c0-.21 0-.41.09-.62a4.74 4.74 0 0 1 .2-.66 4.56 4.56 0 0 1 .18-.52 4.91 4.91 0 0 1 .33-.74 5 5 0 0 1 .29-.5 5.06 5.06 0 0 1 .68-.88 6.86 6.86 0 0 1 2.23-.36h37a2 2 0 0 1 2 2z" fill="#edebf2"/><g fill="#9dcc6b"><path d="m37 37h6v6h-6z"/><path d="m27 37h6v6h-6z"/><path d="m17 37h6v6h-6z"/></g><path d="m23 37v4a4 4 0 0 1 -4-4z" fill="#b5e08c"/><path d="m10 40a1.89 1.89 0 0 1 -.18.82 2 2 0 1 1 -2.64-2.64 1.89 1.89 0 0 1 .82-.18 2 2 0 0 1 2 2z" fill="#374f68"/><path d="m10 40a1.89 1.89 0 0 1 -.18.82 1.89 1.89 0 0 1 -.82.18 2 2 0 0 1 -2-2 1.89 1.89 0 0 1 .18-.82 1.89 1.89 0 0 1 .82-.18 2 2 0 0 1 2 2z" fill="#425b72"/><path d="m27.63 14.37h6v6h-6z" fill="#fc6" transform="matrix(.70710678 -.70710678 .70710678 .70710678 -3.31 26.75)"/><path d="m20.56 21.44h6v6h-6z" fill="#fc6" transform="matrix(.70710678 -.70710678 .70710678 .70710678 -10.38 23.82)"/><path d="m20.73 31.51-1.49 1.49h-5.51l-1.49-1.49 2.76-2.75 1.49-1.49z" fill="#fc6"/><path d="m5 5h6v6h-6z" fill="#db5669" transform="matrix(0 -1 1 0 0 16)"/><path d="m5 15h6v6h-6z" fill="#db5669" transform="matrix(0 -1 1 0 -10 26)"/><path d="m11 25v2.1l-3.9 3.9h-2.1v-6z" fill="#db5669"/><path d="m33 37v4a4 4 0 0 1 -4-4z" fill="#b5e08c"/><path d="m43 37v4a4 4 0 0 1 -4-4z" fill="#b5e08c"/><path d="m16.49 27.27 2.82 2.83a4 4 0 0 1 -5.65 0z" fill="#ffde76"/><path d="m23.56 20.2 2.82 2.8a4 4 0 0 1 -5.65 0z" fill="#ffde76"/><path d="m30.63 13.13 2.83 2.87a4 4 0 0 1 -5.66 0z" fill="#ffde76"/><path d="m5 25h4a4 4 0 0 1 -4 4z" fill="#f26674"/><path d="m5 15h4a4 4 0 0 1 -4 4z" fill="#f26674"/><path d="m5 5h4a4 4 0 0 1 -4 4z" fill="#f26674"/><path d="m45 32h-17.69l12.51-12.51a3 3 0 0 0 0-4.24l-7.07-7.07a3 3 0 0 0 -4.24 0l-12.51 12.51v-17.69a3 3 0 0 0 -3-3h-10a3 3 0 0 0 -3 3v37a8 8 0 0 0 8 8h37a3 3 0 0 0 3-3v-10a3 3 0 0 0 -3-3zm-15.08-22.41a1 1 0 0 1 1.41 0l7.08 7.08a1 1 0 0 1 .29.7 1 1 0 0 1 -.29.71l-13.92 13.92h-2.91a.94.94 0 0 0 .15-.49 1 1 0 0 0 -.29-.71l-4.24-4.24a1 1 0 0 0 -1.42 0l-4.25 4.24a1 1 0 0 0 -.29.71.94.94 0 0 0 .15.49h-3.39-.51l4.22-4.22 4-4zm-15.78 22.41-.48-.49 2.83-2.83 2.83 2.83-.49.49zm-8.14-2v-4h4v.69l-3.31 3.31zm-3-28h10a1 1 0 0 1 1 1v19.69l-2.05 2a1 1 0 0 0 -.95-.69h-6a1 1 0 0 0 -1 1v6a1 1 0 0 0 .74.95l-2.4 2.39c-.12.12-.23.25-.34.38v-31.72a1 1 0 0 1 1-1zm43 43a1 1 0 0 1 -1 1h-37a6 6 0 0 1 -6-6 6.08 6.08 0 0 1 0-.61.44.44 0 0 1 0-.1c0-.16 0-.33.07-.5a6 6 0 0 1 5.93-4.79h37a1 1 0 0 1 1 1z"/><path d="m43 36h-6a1 1 0 0 0 -1 1v6a1 1 0 0 0 1 1h6a1 1 0 0 0 1-1v-6a1 1 0 0 0 -1-1zm-1 6h-4v-4h4z"/><path d="m33 36h-6a1 1 0 0 0 -1 1v6a1 1 0 0 0 1 1h6a1 1 0 0 0 1-1v-6a1 1 0 0 0 -1-1zm-1 6h-4v-4h4z"/><path d="m23 36h-6a1 1 0 0 0 -1 1v6a1 1 0 0 0 1 1h6a1 1 0 0 0 1-1v-6a1 1 0 0 0 -1-1zm-1 6h-4v-4h4z"/><path d="m8 37a3 3 0 1 0 3 3 3 3 0 0 0 -3-3zm0 4a1 1 0 1 1 1-1 1 1 0 0 1 -1 1z"/><path d="m29.92 22.32a1 1 0 0 0 .71.3 1 1 0 0 0 .7-.3l4.25-4.24a1 1 0 0 0 .29-.71 1 1 0 0 0 -.29-.7l-4.25-4.25a1 1 0 0 0 -1.41 0l-4.24 4.25a1 1 0 0 0 0 1.41zm.71-7.78 2.83 2.83-2.83 2.83-2.83-2.83z"/><path d="m22.85 29.39a1 1 0 0 0 .71.3 1 1 0 0 0 .7-.3l4.25-4.24a1 1 0 0 0 0-1.41l-4.25-4.25a1 1 0 0 0 -.7-.29 1 1 0 0 0 -.71.29l-4.24 4.25a1 1 0 0 0 -.3.7 1 1 0 0 0 .3.71zm.71-7.77 2.82 2.82-2.82 2.83-2.83-2.83z"/><path d="m5 12h6a1 1 0 0 0 1-1v-6a1 1 0 0 0 -1-1h-6a1 1 0 0 0 -1 1v6a1 1 0 0 0 1 1zm1-6h4v4h-4z"/><path d="m5 22h6a1 1 0 0 0 1-1v-6a1 1 0 0 0 -1-1h-6a1 1 0 0 0 -1 1v6a1 1 0 0 0 1 1zm1-6h4v4h-4z"/></svg>